<svg width="80" height="80" viewBox="0 0 80 80" fill="none" xmlns="http://www.w3.org/2000/svg">
<rect width="80" height="80" rx="20" fill="#F7F7F7"/>
<path d="M31.8075 39.4999L36.9287 44.6424L47.1925 34.3574" stroke="#6B6B6B" stroke-width="4" stroke-linecap="round" stroke-linejoin="round"/>
<path d="M36.8437 19.2062C38.31 17.9524 40.7112 17.9524 42.1987 19.2062L45.5562 22.0962C46.1937 22.6487 47.3837 23.0949 48.2337 23.0949H51.8462C54.0987 23.0949 55.9475 24.9437 55.9475 27.1962V30.8087C55.9475 31.6374 56.3937 32.8487 56.9462 33.4862L59.8362 36.8437C61.09 38.3099 61.09 40.7112 59.8362 42.1987L56.9462 45.5562C56.3937 46.1937 55.9475 47.3837 55.9475 48.2337V51.8462C55.9475 54.0987 54.0987 55.9474 51.8462 55.9474H48.2337C47.405 55.9474 46.1937 56.3937 45.5562 56.9462L42.1987 59.8362C40.7325 61.0899 38.3312 61.0899 36.8437 59.8362L33.4862 56.9462C32.8487 56.3937 31.6587 55.9474 30.8087 55.9474H27.1325C24.88 55.9474 23.0312 54.0987 23.0312 51.8462V48.2124C23.0312 47.3837 22.585 46.1937 22.0537 45.5562L19.185 42.1774C17.9525 40.7112 17.9525 38.3312 19.185 36.8649L22.0537 33.4862C22.585 32.8487 23.0312 31.6587 23.0312 30.8299V27.1749C23.0312 24.9224 24.88 23.0737 27.1325 23.0737H30.8087C31.6375 23.0737 32.8487 22.6274 33.4862 22.0749L36.8437 19.2062Z" stroke="#6B6B6B" stroke-width="4" stroke-linecap="round" stroke-linejoin="round"/>
</svg>
