<svg width="80" height="80" viewBox="0 0 80 80" fill="none" xmlns="http://www.w3.org/2000/svg">
<rect width="80" height="80" rx="20" fill="#F7F7F7"/>
<path d="M33.4649 37.0987C33.2524 37.0775 32.9974 37.0775 32.7637 37.0987C27.7062 36.9287 23.6899 32.785 23.6899 27.685C23.6899 22.4788 27.8974 18.25 33.1249 18.25C38.3312 18.25 42.5599 22.4788 42.5599 27.685C42.5387 32.785 38.5224 36.9287 33.4649 37.0987Z" stroke="#6B6B6B" stroke-width="4" stroke-linecap="round" stroke-linejoin="round"/>
<path d="M48.8712 22.5C52.9937 22.5 56.3087 25.8363 56.3087 29.9375C56.3087 33.9537 53.1212 37.2262 49.1475 37.375C48.9775 37.3538 48.7862 37.3538 48.595 37.375" stroke="#6B6B6B" stroke-width="4" stroke-linecap="round" stroke-linejoin="round"/>
<path d="M22.84 44.94C17.6975 48.3825 17.6975 53.9925 22.84 57.4137C28.6838 61.3237 38.2675 61.3237 44.1113 57.4137C49.2538 53.9712 49.2538 48.3613 44.1113 44.94C38.2888 41.0513 28.705 41.0513 22.84 44.94Z" stroke="#6B6B6B" stroke-width="4" stroke-linecap="round" stroke-linejoin="round"/>
<path d="M52.9725 56.5C54.5025 56.1812 55.9475 55.565 57.1375 54.6512C60.4525 52.165 60.4525 48.0637 57.1375 45.5775C55.9688 44.685 54.545 44.09 53.0363 43.75" stroke="#6B6B6B" stroke-width="4" stroke-linecap="round" stroke-linejoin="round"/>
</svg>
