<svg width="80" height="80" viewBox="0 0 80 80" fill="none" xmlns="http://www.w3.org/2000/svg">
<g clip-path="url(#clip0_31_480)">
<path d="M0 40C0 17.9086 17.9086 0 40 0C62.0914 0 80 17.9086 80 40C80 62.0914 62.0914 80 40 80C17.9086 80 0 62.0914 0 40Z" fill="#FFF3B7"/>
<path d="M30.9196 42.0182H35.4613V52.6003C35.4613 54.1445 37.4142 54.9166 38.4134 53.7357L49.5404 41.0645C50.9029 39.5203 50.3125 38.2487 48.2688 38.2487H43.7271V27.6666C43.7271 26.1224 41.7742 25.3503 40.775 26.5312L29.6479 39.2024C28.2854 40.7466 28.8759 42.0182 30.9196 42.0182Z" stroke="#CE890E" stroke-width="4" stroke-miterlimit="10" stroke-linecap="round" stroke-linejoin="round"/>
</g>
<defs>
<clipPath id="clip0_31_480">
<path d="M0 40C0 17.9086 17.9086 0 40 0C62.0914 0 80 17.9086 80 40C80 62.0914 62.0914 80 40 80C17.9086 80 0 62.0914 0 40Z" fill="white"/>
</clipPath>
</defs>
</svg>
