<svg width="80" height="80" viewBox="0 0 80 80" fill="none" xmlns="http://www.w3.org/2000/svg">
<rect width="80" height="80" rx="20" fill="#EAFAF6"/>
<path d="M31.8075 39.4999L36.9287 44.6424L47.1925 34.3574" stroke="#00A87F" stroke-width="4" stroke-linecap="round" stroke-linejoin="round"/>
<path d="M36.8437 19.2063C38.31 17.9526 40.7112 17.9526 42.1987 19.2063L45.5562 22.0963C46.1937 22.6488 47.3837 23.0951 48.2337 23.0951H51.8462C54.0987 23.0951 55.9475 24.9438 55.9475 27.1963V30.8088C55.9475 31.6376 56.3937 32.8488 56.9462 33.4863L59.8362 36.8438C61.09 38.3101 61.09 40.7113 59.8362 42.1988L56.9462 45.5563C56.3937 46.1938 55.9475 47.3838 55.9475 48.2338V51.8463C55.9475 54.0988 54.0987 55.9476 51.8462 55.9476H48.2337C47.405 55.9476 46.1937 56.3938 45.5562 56.9463L42.1987 59.8363C40.7325 61.0901 38.3312 61.0901 36.8437 59.8363L33.4862 56.9463C32.8487 56.3938 31.6587 55.9476 30.8087 55.9476H27.1325C24.88 55.9476 23.0312 54.0988 23.0312 51.8463V48.2126C23.0312 47.3838 22.585 46.1938 22.0537 45.5563L19.185 42.1776C17.9525 40.7113 17.9525 38.3313 19.185 36.8651L22.0537 33.4863C22.585 32.8488 23.0312 31.6588 23.0312 30.8301V27.1751C23.0312 24.9226 24.88 23.0738 27.1325 23.0738H30.8087C31.6375 23.0738 32.8487 22.6276 33.4862 22.0751L36.8437 19.2063Z" stroke="#00A87F" stroke-width="4" stroke-linecap="round" stroke-linejoin="round"/>
</svg>
