<svg width="80" height="80" viewBox="0 0 80 80" fill="none" xmlns="http://www.w3.org/2000/svg">
<rect width="80" height="80" rx="20" fill="#F7F7F7"/>
<path d="M32.0625 54.375H31C22.5 54.375 18.25 52.25 18.25 41.625V31C18.25 22.5 22.5 18.25 31 18.25H48C56.5 18.25 60.75 22.5 60.75 31V41.625C60.75 50.125 56.5 54.375 48 54.375H46.9375C46.2787 54.375 45.6412 54.6937 45.2375 55.225L42.05 59.475C40.6475 61.345 38.3525 61.345 36.95 59.475L33.7625 55.225C33.4225 54.7575 32.6363 54.375 32.0625 54.375Z" stroke="#6B6B6B" stroke-width="4" stroke-miterlimit="10" stroke-linecap="round" stroke-linejoin="round"/>
<path d="M47.9925 37.375H48.0116" stroke="#6B6B6B" stroke-width="4" stroke-linecap="round" stroke-linejoin="round"/>
<path d="M30.9883 37.375H31.0074" stroke="#6B6B6B" stroke-width="4" stroke-linecap="round" stroke-linejoin="round"/>
</svg>
