<svg width="81" height="80" viewBox="0 0 81 80" fill="none" xmlns="http://www.w3.org/2000/svg">
<rect x="0.333496" width="80" height="80" rx="40" fill="#F7F7F7"/>
<path d="M53.5823 49.7638L54.411 56.4787C54.6235 58.2425 52.7323 59.4749 51.2235 58.5612L42.3198 53.27C41.3423 53.27 40.3861 53.2063 39.4511 53.0788C41.0236 51.23 41.9585 48.8925 41.9585 46.3637C41.9585 40.3287 36.731 35.4413 30.271 35.4413C27.806 35.4413 25.5323 36.1425 23.641 37.375C23.5773 36.8438 23.556 36.3125 23.556 35.76C23.556 26.0912 31.9498 18.25 42.3198 18.25C52.6898 18.25 61.0835 26.0912 61.0835 35.76C61.0835 41.4975 58.1298 46.5763 53.5823 49.7638Z" stroke="#6B6B6B" stroke-width="4" stroke-linecap="round" stroke-linejoin="round"/>
<path d="M41.9585 46.3637C41.9585 48.8924 41.0235 51.23 39.451 53.0788C37.3473 55.6288 34.011 57.2649 30.271 57.2649L24.7247 60.5587C23.7897 61.1324 22.5997 60.3462 22.7272 59.2625L23.2585 55.0763C20.411 53.1 18.5835 49.9337 18.5835 46.3637C18.5835 42.6237 20.581 39.33 23.641 37.375C25.5323 36.1425 27.806 35.4413 30.271 35.4413C36.731 35.4413 41.9585 40.3287 41.9585 46.3637Z" stroke="#6B6B6B" stroke-width="4" stroke-linecap="round" stroke-linejoin="round"/>
</svg>
