<svg width="36" height="36" viewBox="0 0 36 36" fill="none" xmlns="http://www.w3.org/2000/svg">
<path d="M23.865 18.5549H30.9C30.78 25.5599 29.4 26.7149 25.095 29.2649C24.6 29.5649 24.435 30.1949 24.735 30.7049C25.035 31.1999 25.665 31.3649 26.175 31.0649C31.245 28.0649 33.015 26.2349 33.015 17.5049V9.41995C33.015 6.85495 30.93 4.78491 28.38 4.78491H23.88C21.24 4.78491 19.245 6.77995 19.245 9.41995V13.92C19.23 16.56 21.225 18.5549 23.865 18.5549Z" fill="#6B6B6B"/>
<path d="M7.63498 18.5549H14.67C14.55 25.5599 13.17 26.7149 8.86498 29.2649C8.36998 29.5649 8.20498 30.1949 8.50498 30.7049C8.80498 31.1999 9.43498 31.3649 9.94498 31.0649C15.015 28.0649 16.785 26.2349 16.785 17.5049V9.41995C16.785 6.85495 14.7 4.78491 12.15 4.78491H7.64998C5.00998 4.78491 3.01498 6.77995 3.01498 9.41995V13.92C2.99998 16.56 4.99498 18.5549 7.63498 18.5549Z" fill="#6B6B6B"/>
</svg>
