<?xml version="1.0" standalone="no"?>
<svg xmlns="http://www.w3.org/2000/svg" height="4589pt" preserveAspectRatio="xMidYMid meet" viewBox="0 0 4850 4589" width="4850pt">
  <path d="m13875 45869c-1772-55-3390-261-4815-614-118-29-217-52-220-50-4 2-12 22-20 44-7 23-21 48-31 57-16 14-23 14-71 1-148-42-1102-319-1112-323-7-3-18 12-25 31-7 20-19 39-26 41-14 6-92-16-495-138-1758-531-3325-1118-4795-1799-689-319-1689-837-2210-1146l-50-29-3-6463-2-6463 122 109c68 60 278 246 468 414s617 545 950 839 835 737 1115 985c2499 2208 5402 4772 5414 4782 3 2-20 120-49 263s-51 262-49 264 506 312 1120 690l1116 686-58 347c-32 192-61 362-64 379-5 31-4 33 92 87 259 145 495 234 742 277l64 11 161-159c533-527 1074-925 1681-1238 508-261 1024-454 1847-690 189-54 270-81 288-98 611-561 1245-1122 1675-1480 741-619 1269-994 1655-1179 80-38 152-72 160-77 11-5 14-21 12-56-5-76 15-289 39-409 66-346 258-698 517-949l50-49-80-91c-662-756-638-1903 56-2623l88-93-261-709c-144-391-263-716-266-723-4-9 33-27 117-57 68-24 127-47 131-51s-245-692-553-1529-560-1530-560-1539c0-24 401-573 426-582 30-12 634 171 650 196 7 10 134 350 282 754 553 1506 844 2295 847 2298 1 1 13-2 27-7 23-9 25-6 49 61 13 38 27 72 31 75 5 2 8-100 8-226v-231h150 150v-1764c0-1643 1-1766 17-1781 9-10 152-108 317-218 195-130 310-200 326-200 18 0 112 64 308 211l282 212v1770 1770h30 30v836 835l84 39c556 257 989 772 1145 1361 58 218 65 282 65 549 0 265-7 327-64 547-135 520-484 981-959 1267-52 31-97 58-99 61-2 2 19 49 47 104 138 269 201 530 201 836 0 152-17 305-45 418-47 185-128 381-218 527l-46 75 39 33c42 36 146 161 188 227 129 203 223 437 302 750 36 143 43 161 82 208 133 162 263 316 429 507 440 509 594 719 789 1080 151 279 306 527 690 1105 391 590 554 924 577 1187 19 221-103 527-364 912-51 76-93 140-91 141 2 2 117 17 256 34l252 31 108-46c736-315 1526-504 2110-504h134l113-65c413-237 772-378 1060-416 292-38 917 63 1236 201 221 94 373 220 446 367 93 185 80 387-41 639l-54 112 20 20c33 32 17 61-66 120-155 110-372 205-566 247-41 9-136 19-210 22l-135 6-124 70c-309 173-772 393-1626 775-549 245-847 381-858 392-5 4 47 34 115 67 428 207 737 478 873 764 49 104 68 188 68 294-1 180-75 318-232 432-3 2 1 9 7 15 7 7 12 15 12 19 0 10-188 53-325 76-86 14-167 18-365 18-268 0-333-7-485-50-67-20-123-25-347-36-328-15-1040-7-1318 15-680 53-1261 48-2580-24-195-11-378-21-406-22l-51-3-63 78c-253 315-699 538-1382 691-131 30-198 38-444 55-1314 93-2548 155-3574 181-454 11-1721 11-2105-1zm5615-4765c365-293 807-466 1252-491l117-6 16-76c43-192 136-419 232-564 101-152 258-275 415-326l37-12-138-137c-283-283-399-530-418-892-5-100 9-322 23-371 3-12-9-25-39-42-147-86-303-372-386-707-43-175-60-299-68-487-3-90-7-163-9-163-1 0-15 5-31 11-76 29-283 79-370 89-82 10-110 9-172-4-41-9-76-15-77-13-1 1-63 126-137 277-209 423-350 659-526 877-85 106-267 288-344 343l-47 34-106 324-105 324v193c0 197 10 338 37 505 96 612 367 1147 692 1367 26 17 52 28 57 23 6-4 48-38 95-76zm1986-6021 62-6 57-86c263-396 331-915 180-1368-33-97-143-323-161-330-7-3-48 7-91 21-379 124-799 138-1177 40-34-9-113-25-176-35-319-53-555-146-818-322l-105-70-102 104c-267 276-421 631-442 1018l-6 116h159c181 0 302 21 478 81 119 41 334 143 453 215l85 51 312-12c285-12 322-11 414 4 246 41 472 155 623 313 80 85 125 164 136 239 6 43 7 45 32 40 14-4 54-9 87-13zm-525-2249c59-17 129-53 129-66 0-14-201-106-313-143-110-37-361-84-374-71-22 21 87 164 165 218 108 74 266 99 393 62zm314-316c31-106 15-245-41-349-77-141-189-204-364-202-152 1-258 49-364 163-49 54-115 164-104 175 2 3 56 11 120 20 216 28 432 97 622 199 56 30 104 52 108 50 4-3 14-28 23-56zm2505-10374c-469-64-925-290-1182-588-455-526-376-1175 215-1775 239-243 510-447 892-670 133-78 539-286 673-345 61-27 79-46 45-46-10-1-78-9-151-19l-132-18-68 49c-620 451-1492 728-2480 788-97 6-205 13-238 16l-62 5-52 85c-115 188-292 378-475 509-107 76-303 179-435 228-191 71-484 131-704 144l-99 6-81 82c-347 348-882 599-1481 696-165 26-524 37-676 20-611-70-969-386-969-855v-99l-40-43c-22-24-40-52-40-62 0-47 233-293 393-414 217-165 545-322 822-393 68-17 74-22 180-125 492-479 1734-1454 2828-2219 441-309 697-458 1447-846 841-434 1187-640 1441-858 191-164 340-300 729-667 543-512 784-730 1020-921 222-181 452-339 630-432 225-119 1217-498 2090-799 80-27 420-143 755-258 1080-369 1350-464 1840-647 1136-424 2049-847 2855-1321 307-181 502-307 587-380 360-312 705-940 1018-1852 25-73 56-168 69-210l24-78-168-33c-106-20-167-36-164-43 9-29 813-2694 819-2717 6-25 5-26-97-48-131-29-359-104-412-135-23-13-49-33-59-44-18-20-10-90 262-2384 155-1299 283-2378 286-2395l6-33h6531c5270 0 6529 2 6525 13-2 7-381 690-842 1517-1318 2368-2251 4044-2537 4559-299 538-282 515-398 508-76-4-145-29-253-91-42-24-79-41-82-36-2 4-232 684-510 1511-278 826-507 1505-510 1507-2 3-258-46-568-107s-570-111-578-111c-14 1-51 70-544 1020-637 1229-919 1746-1292 2368-728 1218-1499 2248-2437 3257-166 179-180 197-243 315-1185 2233-3011 3453-5628 3759-439 52-805 71-1340 71h-409l-1306 496c-1104 420-1314 502-1365 539-436 310-1085 585-1822 769-396 100-1066 227-1481 281-141 19-430 18-572-1z" transform="matrix(.1 0 0 -.1 0 4589)" vector-effect="non-scaling-stroke" fill="#000000" stroke="none" stroke-width="2"/>
</svg>
